<svg xmlns="http://www.w3.org/2000/svg" viewBox="0 0 256 256"><defs><linearGradient id="m" x1="0" y1="0" x2="1" y2="1"><stop stop-color="#65728a"/><stop offset=".35" stop-color="#273247"/><stop offset="1" stop-color="#080d16"/></linearGradient><linearGradient id="e"><stop stop-color="#edfaff"/><stop offset=".45" stop-color="#526c88"/><stop offset="1" stop-color="#182438"/></linearGradient></defs><path d="M128 20 218 72v112l-90 52-90-52V72Z" fill="#050911" stroke="url(#e)" stroke-width="5"/><path d="M128 38 201 80v96l-73 42-73-42V80Z" fill="url(#m)" stroke="#b9d7ee" stroke-opacity=".34" stroke-width="2"/><path d="M70 156V97l34 20v-20l34 20V89l47 28v58H70Z" fill="#0b1421" stroke="#c9e8fb" stroke-opacity=".55" stroke-width="3"/><path d="M91 77h18v35H91zm52-17h18v52h-18z" fill="#172539" stroke="#9fbcd4" stroke-width="2"/><g fill="#d9f7ff"><rect x="84" y="135" width="19" height="17" rx="3"/><rect x="113" y="135" width="19" height="17" rx="3"/><rect x="142" y="135" width="19" height="17" rx="3"/></g><circle cx="128" cy="177" r="22" fill="#07101c" stroke="#e1f9ff" stroke-opacity=".62" stroke-width="3"/><path d="m128 160 7 10 12 2-8 9 2 12-13-5-12 5 2-12-9-9 13-2Z" fill="#9beeff"/></svg>